<!DOCTYPE svg PUBLIC "-//W3C//DTD SVG 20010904//EN" "http://www.w3.org/TR/2001/REC-SVG-20010904/DTD/svg10.dtd">
<svg version="1.0" xmlns="http://www.w3.org/2000/svg" width="16px" height="16px" viewBox="0 0 5120 5120" preserveAspectRatio="xMidYMid meet">
<g id="layer101" fill="#2d527c" stroke="none">
 <path d="M2295 5105 c-199 -21 -362 -50 -562 -101 -217 -55 -342 -104 -508 -198 -98 -56 -146 -77 -194 -86 -326 -59 -503 -187 -519 -376 -7 -89 11 -144 67 -206 96 -107 300 -168 658 -198 112 -9 137 -8 170 5 75 30 106 122 63 192 -33 56 -56 63 -227 79 -233 21 -379 51 -440 91 -23 15 -23 16 -6 35 64 71 295 124 698 160 192 17 1047 17 1260 0 565 -46 1039 -152 1177 -263 50 -39 90 -51 140 -40 76 17 116 85 98 166 -33 149 -459 301 -1053 375 -211 27 -532 50 -693 50 -72 0 -173 3 -225 7 l-94 7 90 12 c346 48 949 41 1330 -15 39 -6 90 -11 115 -11 106 0 168 94 126 193 -26 64 -72 77 -386 112 -206 24 -892 29 -1085 10z"/>
 <path d="M2215 4163 c-345 -23 -610 -96 -725 -199 -86 -78 -120 -209 -81 -319 l20 -60 -21 -15 c-57 -39 -134 -127 -146 -166 -16 -56 -15 -127 3 -171 8 -19 15 -36 15 -38 0 -1 -19 -8 -42 -15 -88 -26 -191 -82 -243 -134 -121 -118 -126 -293 -10 -407 94 -94 292 -156 592 -184 57 -6 78 -3 108 11 50 23 75 67 75 128 0 43 -4 53 -38 86 -32 33 -46 39 -97 45 -260 28 -440 75 -440 115 0 32 160 95 305 119 157 26 230 32 470 38 381 9 632 -14 914 -83 257 -63 500 -161 673 -273 150 -96 311 -143 488 -143 133 0 222 20 318 70 157 81 256 259 257 463 1 229 -162 436 -471 598 -171 90 -437 183 -525 183 -63 0 -126 -39 -153 -95 -49 -102 -18 -170 129 -282 185 -140 340 -314 340 -384 0 -35 -59 -85 -157 -132 l-84 -40 -47 30 c-127 81 -387 188 -596 246 -334 91 -478 108 -961 111 -214 2 -401 6 -415 9 -14 3 -49 15 -79 27 l-53 21 27 15 c82 42 218 76 400 97 283 34 626 4 1147 -100 183 -37 222 -42 252 -33 105 33 129 167 41 236 -43 34 -418 110 -753 154 -183 24 -573 31 -787 15 -87 -7 -118 -6 -150 6 -55 19 -56 40 -2 72 105 61 398 106 692 106 266 1 451 -29 695 -111 155 -51 182 -53 233 -18 83 59 72 180 -21 231 -91 49 -296 108 -488 141 -172 30 -421 41 -609 29z"/>
 <path d="M2820 2818 c-33 -17 -51 -35 -67 -68 -31 -60 -29 -93 12 -199 19 -49 35 -95 35 -102 0 -6 -36 -55 -79 -110 -137 -169 -186 -298 -186 -489 0 -112 1 -117 36 -190 55 -114 160 -224 308 -324 132 -88 371 -207 556 -277 155 -58 275 4 275 143 0 78 -21 104 -195 235 -222 168 -375 314 -375 358 0 7 33 61 73 121 78 116 121 209 138 300 35 191 -100 426 -335 585 -71 47 -126 52 -196 17z"/>
 <path d="M2348 2740 c-20 -4 -49 -15 -65 -25 -58 -38 -171 -135 -265 -229 -350 -348 -454 -702 -293 -1003 113 -214 262 -357 618 -595 323 -215 360 -249 407 -376 34 -91 43 -151 38 -262 -7 -139 10 -185 82 -229 45 -27 131 -29 180 -2 66 35 150 187 193 351 28 108 28 279 -1 383 -65 232 -210 397 -622 708 -234 176 -340 307 -340 421 0 116 86 328 211 523 62 97 64 102 64 167 0 52 -5 73 -21 94 -45 61 -110 87 -186 74z"/>
 </g>
<g id="layer102" fill="#cee8fa" stroke="none">
 <path d="M4076 3348 c4 -7 18 -26 30 -43 12 -16 37 -59 55 -95 31 -60 34 -73 34 -155 0 -78 -4 -97 -27 -140 -14 -28 -47 -74 -72 -102 l-46 -51 42 5 c125 14 205 70 232 164 32 108 14 193 -61 278 -59 68 -213 182 -187 139z"/>
 <path d="M3049 2328 c-9 -18 -52 -77 -96 -131 -115 -141 -152 -225 -153 -345 0 -62 23 -113 71 -157 25 -23 30 -26 24 -10 -19 50 -26 119 -16 166 14 64 38 110 117 225 78 116 102 185 82 245 l-14 41 -15 -34z"/>
 <path d="M1987 2013 c-69 -132 -85 -254 -48 -352 45 -119 181 -279 337 -398 44 -33 165 -116 269 -185 268 -177 340 -242 407 -363 38 -68 37 -27 -1 47 -66 131 -181 244 -466 461 -88 67 -197 158 -243 201 -140 134 -219 276 -229 411 -5 64 8 189 23 229 3 9 2 16 -4 16 -5 0 -25 -30 -45 -67z"/>
 </g>

</svg>
